<?xml version="1.0" encoding="UTF-8" standalone="no"?>
<!DOCTYPE svg PUBLIC "-//W3C//DTD SVG 1.1//EN" "http://www.w3.org/Graphics/SVG/1.1/DTD/svg11.dtd">
<svg width="100%" height="100%" viewBox="0 0 532 544" version="1.1" xmlns="http://www.w3.org/2000/svg" xmlns:xlink="http://www.w3.org/1999/xlink" xml:space="preserve" xmlns:serif="http://www.serif.com/" style="fill-rule:evenodd;clip-rule:evenodd;stroke-linecap:round;stroke-linejoin:round;stroke-miterlimit:1.5;">
    <g transform="matrix(3.56782,0,0,3.56782,10.1972,4.91732)">
        <g transform="matrix(0.934534,0,0,-0.934534,13.1899,129.143)">
            <path d="M-0,56.764L128,119.822L128,0L-0,0L-0,56.764Z" style="fill:none;"/>
            <clipPath id="_clip1">
                <path d="M-0,56.764L128,119.822L128,0L-0,0L-0,56.764Z"/>
            </clipPath>
            <g clip-path="url(#_clip1)">
                <g id="circle28579" transform="matrix(2.40245,-1.249e-16,0,-2.40245,35.8459,785.767)">
                    <circle cx="20.252" cy="313.254" r="10.406" style="fill:url(#_Radial2);"/>
                </g>
                <g id="circle285791" serif:id="circle28579" transform="matrix(2.40245,-1.249e-16,0,-2.40245,22.1281,860.757)">
                    <circle cx="20.252" cy="313.254" r="10.406" style="fill:url(#_Radial3);"/>
                </g>
                <g>
                    <g transform="matrix(0.299918,0,0,-0.299918,-24.0703,152.261)">
                        <circle cx="262.5" cy="320.5" r="92.5" style="fill:white;"/>
                    </g>
                    <g id="path28264" transform="matrix(-0.120651,2.39727,2.39727,0.120651,-648.154,-99.4736)">
                        <path d="M51.16,280.264C59.529,280.264 66.323,287.058 66.323,295.426C66.323,303.795 59.529,310.589 51.16,310.589C42.792,310.589 35.998,303.795 35.998,295.426C35.998,287.058 42.792,280.264 51.16,280.264ZM40.246,298.61C40.237,298.797 40.37,298.854 40.461,298.884C40.47,298.887 40.478,298.89 40.487,298.893L44.992,300.068C46.365,300.518 47.435,301.372 47.819,302.764L48.455,304.964C48.545,305.269 48.973,305.286 49.087,304.987L49.888,302.874C50.41,301.523 51.562,300.775 52.978,300.467L57.629,299.754C57.63,299.754 57.631,299.753 57.633,299.753C57.682,299.742 57.74,299.721 57.784,299.675C57.795,299.665 57.804,299.654 57.811,299.642C57.835,299.606 57.852,299.558 57.855,299.495C57.863,299.339 57.746,299.243 57.656,299.214L53.099,298.037C51.721,297.588 50.65,296.729 50.266,295.332L49.682,293.15C49.598,292.841 49.17,292.815 49.051,293.112L48.198,295.237C47.674,296.584 46.524,297.326 45.114,297.636L40.514,298.353C40.422,298.373 40.256,298.416 40.246,298.61ZM54.607,295.705C54.632,295.793 54.755,295.796 54.785,295.71L55.165,294.536C55.245,294.289 55.448,294.105 55.7,294.046L57.658,293.675C57.753,293.657 57.76,293.522 57.666,293.494L55.761,292.957C55.508,292.876 55.321,292.665 55.268,292.406L55.02,291.208C55.002,291.119 54.879,291.107 54.843,291.192L54.349,292.417C54.261,292.637 54.07,292.8 53.84,292.857L52.031,293.212C51.937,293.231 51.929,293.363 52.022,293.391L53.792,293.942C54.015,294.023 54.186,294.207 54.251,294.435L54.607,295.705ZM41.198,290.075C41.227,290.116 41.287,290.179 41.405,290.239C41.545,290.311 42.889,290.721 42.889,290.721C44.046,291.045 44.199,291.444 44.499,292.317L44.777,293.342C44.806,293.499 44.92,293.595 44.92,293.595C45.005,293.707 45.195,293.694 45.252,293.545L45.701,292.486L45.701,292.484C46.072,291.556 46.487,291.204 47.195,291.02C47.289,290.996 47.387,290.975 47.491,290.954C47.539,290.945 47.589,290.936 47.64,290.928C48.631,290.766 49.283,290.573 49.283,290.573C49.345,290.554 49.389,290.53 49.42,290.507C49.529,290.459 49.539,290.166 49.424,290.128L47.699,289.674C46.907,289.417 46.292,288.922 46.071,288.12L45.588,286.834C45.54,286.657 45.293,286.641 45.226,286.813L44.714,288.057C44.414,288.831 43.752,289.258 42.941,289.437L41.255,289.718C41.146,289.742 41.121,289.989 41.198,290.075Z" style="fill:url(#_Radial4);"/>
                    </g>
                </g>
            </g>
        </g>
        <g transform="matrix(0.934534,0,0,-0.934534,13.1899,129.32)">
            <path d="M-0,56.764L128,120.183L128,138.379L0,138.379L-0,56.764Z" style="fill:none;"/>
            <clipPath id="_clip5">
                <path d="M-0,56.764L128,120.183L128,138.379L0,138.379L-0,56.764Z"/>
            </clipPath>
            <g clip-path="url(#_clip5)">
                <g transform="matrix(0.240103,0,0,-0.240103,-276.428,311.796)">
                    <g transform="matrix(4.01433,0,0,-9.57003,1261.07,1695.74)">
                        <path d="M32.061,47.605L32.061,101.459" style="fill:none;stroke:rgb(147,147,147);stroke-width:0.21px;"/>
                    </g>
                    <g transform="matrix(4.01433,0,0,-8.14025,1217.07,1627.68)">
                        <path d="M32.061,47.605L32.061,101.459" style="fill:none;stroke:rgb(147,147,147);stroke-width:0.24px;"/>
                    </g>
                    <g transform="matrix(4.01433,0,0,-7.31271,1172.07,1588.28)">
                        <path d="M32.061,47.605L32.061,101.459" style="fill:none;stroke:rgb(147,147,147);stroke-width:0.26px;"/>
                    </g>
                    <g transform="matrix(4.01433,0,0,-5.67062,1127.07,1510.11)">
                        <path d="M32.061,47.605L32.061,101.459" style="fill:none;stroke:rgb(147,147,147);stroke-width:0.32px;"/>
                    </g>
                    <g transform="matrix(4.01433,0,0,-9.57048,1306.45,1695.76)">
                        <path d="M32.061,47.605L32.061,101.459" style="fill:none;stroke:rgb(147,147,147);stroke-width:0.21px;"/>
                    </g>
                    <g transform="matrix(4.01433,0,0,-9.57048,1351.47,1695.76)">
                        <path d="M32.061,47.605L32.061,101.459" style="fill:none;stroke:rgb(147,147,147);stroke-width:0.21px;"/>
                    </g>
                    <g transform="matrix(4.01433,0,0,-8.88503,1396.47,1663.13)">
                        <path d="M32.061,47.605L32.061,101.459" style="fill:none;stroke:rgb(147,147,147);stroke-width:0.23px;"/>
                    </g>
                    <g transform="matrix(1.95805e-16,4.01433,7.68247,-5.90543e-16,870.009,911.762)">
                        <path d="M32.061,47.605L32.061,101.459" style="fill:none;stroke:rgb(147,147,147);stroke-width:0.25px;"/>
                    </g>
                    <g transform="matrix(1.95168e-16,4.01433,7.65746,-5.90543e-16,872.546,864.762)">
                        <path d="M32.061,47.605L32.061,101.459" style="fill:none;stroke:rgb(147,147,147);stroke-width:0.26px;"/>
                    </g>
                    <g transform="matrix(1.95168e-16,4.01433,7.65746,-5.90543e-16,872.546,823.762)">
                        <path d="M32.061,47.605L32.061,101.459" style="fill:none;stroke:rgb(147,147,147);stroke-width:0.26px;"/>
                    </g>
                    <g transform="matrix(1.43109e-16,4.01433,5.61491,-5.90543e-16,1011.78,776.762)">
                        <path d="M32.061,47.605L32.061,101.459" style="fill:none;stroke:rgb(147,147,147);stroke-width:0.32px;"/>
                    </g>
                    <g transform="matrix(1.43109e-16,4.01433,5.61491,-5.90543e-16,1011.78,734.762)">
                        <path d="M32.061,47.605L32.061,94.379" style="fill:none;stroke:rgb(147,147,147);stroke-width:0.32px;"/>
                    </g>
                    <g transform="matrix(1.58552e-16,4.01433,3.9664,-4.95217e-16,1139.28,689.762)">
                        <path d="M32.061,47.605L32.061,101.459" style="fill:none;stroke:rgb(147,147,147);stroke-width:0.39px;"/>
                    </g>
                    <g transform="matrix(-2.9921e-16,4.01433,3.1001,-8.0466e-16,1224.5,646.762)">
                        <path d="M32.061,47.605L32.061,101.459" style="fill:none;stroke:rgb(147,147,147);stroke-width:0.44px;"/>
                    </g>
                    <g transform="matrix(5.79213e-17,4.01433,2.27256,-5.90543e-16,1263.9,606.762)">
                        <path d="M32.061,47.605L32.061,101.459" style="fill:none;stroke:rgb(147,147,147);stroke-width:0.48px;"/>
                    </g>
                    <g transform="matrix(1.95805e-16,4.01433,7.68247,-5.90543e-16,870.009,953.762)">
                        <path d="M32.061,47.605L32.061,101.459" style="fill:none;stroke:rgb(147,147,147);stroke-width:0.25px;"/>
                    </g>
                    <g transform="matrix(2.45807e-16,4.01433,9.6443,-5.90543e-16,670.962,1043.76)">
                        <path d="M32.061,47.605L32.061,101.459" style="fill:none;stroke:rgb(147,147,147);stroke-width:0.21px;"/>
                    </g>
                    <g transform="matrix(2.45807e-16,4.01433,9.6443,-5.90543e-16,670.962,1076.76)">
                        <path d="M32.061,47.605L32.061,101.459" style="fill:none;stroke:rgb(147,147,147);stroke-width:0.21px;"/>
                    </g>
                </g>
                <g transform="matrix(0.240103,0,0,-0.240103,-276.428,311.796)">
                    <g transform="matrix(4.34623,0,0,4.34623,1326.01,732.412)">
                        <circle cx="14.618" cy="9.871" r="1.697" style="fill:rgb(196,196,196);"/>
                    </g>
                    <g transform="matrix(5.22067,0,0,5.22067,1313.23,811.984)">
                        <circle cx="14.618" cy="9.871" r="1.697" style="fill:rgb(196,196,196);"/>
                    </g>
                    <g transform="matrix(4.70841,0,0,4.70841,1277.38,771.419)">
                        <circle cx="14.618" cy="9.871" r="1.697" style="fill:rgb(196,196,196);"/>
                    </g>
                    <g transform="matrix(2.61034,0,0,2.61034,1308.04,880.333)">
                        <circle cx="14.618" cy="9.871" r="1.697" style="fill:rgb(196,196,196);"/>
                    </g>
                    <g transform="matrix(6.91847,0,0,6.91847,1334.05,750.172)">
                        <circle cx="14.618" cy="9.871" r="1.697" style="fill:rgb(196,196,196);"/>
                    </g>
                    <g transform="matrix(5.22067,0,0,5.22067,1358.77,854.566)">
                        <circle cx="14.618" cy="9.871" r="1.697" style="fill:rgb(196,196,196);"/>
                    </g>
                    <g transform="matrix(5.43278,0,0,5.43278,1310.13,764.269)">
                        <circle cx="14.618" cy="9.871" r="1.697" style="fill:rgb(196,196,196);"/>
                    </g>
                    <g transform="matrix(3.48045,0,0,3.48045,1338.67,871.744)">
                        <circle cx="14.618" cy="9.871" r="1.697" style="fill:rgb(196,196,196);"/>
                    </g>
                    <g transform="matrix(4.34623,0,0,4.34623,1282.67,821.067)">
                        <circle cx="14.618" cy="9.871" r="1.697" style="fill:rgb(196,196,196);"/>
                    </g>
                    <g transform="matrix(5.18886,0,0,5.18886,1359.28,724.094)">
                        <circle cx="14.618" cy="9.871" r="1.697" style="fill:rgb(196,196,196);"/>
                    </g>
                    <g transform="matrix(6.9609,0,0,6.9609,1333.4,796.249)">
                        <circle cx="14.618" cy="9.871" r="1.697" style="fill:rgb(196,196,196);"/>
                    </g>
                    <g transform="matrix(2.61034,0,0,2.61034,1351.39,929.202)">
                        <circle cx="14.618" cy="9.871" r="1.697" style="fill:rgb(196,196,196);"/>
                    </g>
                    <g transform="matrix(1.74022,0,0,1.74022,1406.11,970.79)">
                        <circle cx="14.618" cy="9.871" r="1.697" style="fill:rgb(196,196,196);"/>
                    </g>
                    <g transform="matrix(3.98404,0,0,3.98404,1242.04,824.642)">
                        <circle cx="14.618" cy="9.871" r="1.697" style="fill:rgb(196,196,196);"/>
                    </g>
                    <g transform="matrix(3.45924,0,0,3.45924,1384.56,701.167)">
                        <circle cx="14.618" cy="9.871" r="1.697" style="fill:rgb(196,196,196);"/>
                    </g>
                    <g transform="matrix(1.74022,0,0,1.74022,1539.31,846.286)">
                        <circle cx="14.618" cy="9.871" r="1.697" style="fill:rgb(196,196,196);"/>
                    </g>
                    <g transform="matrix(3.48045,0,0,3.48045,1385.85,918.613)">
                        <circle cx="14.618" cy="9.871" r="1.697" style="fill:rgb(196,196,196);"/>
                    </g>
                    <g transform="matrix(3.45924,0,0,3.45924,1429.6,741.167)">
                        <circle cx="14.618" cy="9.871" r="1.697" style="fill:rgb(196,196,196);"/>
                    </g>
                    <g transform="matrix(5.22067,0,0,5.22067,1403.85,811.984)">
                        <circle cx="14.618" cy="9.871" r="1.697" style="fill:rgb(196,196,196);"/>
                    </g>
                    <g transform="matrix(3.45924,0,0,3.45924,1474.6,784.318)">
                        <circle cx="14.618" cy="9.871" r="1.697" style="fill:rgb(196,196,196);"/>
                    </g>
                    <g transform="matrix(2.77036,0,0,2.77036,1484.67,747.946)">
                        <circle cx="14.618" cy="9.871" r="1.697" style="fill:rgb(196,196,196);"/>
                    </g>
                    <g transform="matrix(2.61034,0,0,2.61034,1487.01,880.333)">
                        <circle cx="14.618" cy="9.871" r="1.697" style="fill:rgb(196,196,196);"/>
                    </g>
                    <g transform="matrix(5.18886,0,0,5.18886,1404.32,766.677)">
                        <circle cx="14.618" cy="9.871" r="1.697" style="fill:rgb(196,196,196);"/>
                    </g>
                    <g transform="matrix(3.48045,0,0,3.48045,1429.29,871.744)">
                        <circle cx="14.618" cy="9.871" r="1.697" style="fill:rgb(196,196,196);"/>
                    </g>
                    <g transform="matrix(5.18886,0,0,5.18886,1449.9,812.245)">
                        <circle cx="14.618" cy="9.871" r="1.697" style="fill:rgb(196,196,196);"/>
                    </g>
                    <g transform="matrix(2.61034,0,0,2.61034,1440.61,927.202)">
                        <circle cx="14.618" cy="9.871" r="1.697" style="fill:rgb(196,196,196);"/>
                    </g>
                </g>
                <g transform="matrix(0.240103,0,0,-0.240103,-251.627,334.862)">
                    <g transform="matrix(5.22067,0,0,5.22067,1076.08,1085.15)">
                        <circle cx="14.618" cy="9.871" r="1.697" style="fill:rgb(212,0,0);"/>
                    </g>
                    <g transform="matrix(8.64809,0,0,8.64809,1115.91,963.116)">
                        <circle cx="14.618" cy="9.871" r="1.697" style="fill:rgb(212,0,0);"/>
                    </g>
                    <g transform="matrix(7.65699,0,0,7.65699,1130.55,1061.1)">
                        <circle cx="14.618" cy="9.871" r="1.697" style="fill:rgb(212,0,0);"/>
                    </g>
                    <g transform="matrix(6.91847,0,0,6.91847,1095.85,1020.59)">
                        <circle cx="14.618" cy="9.871" r="1.697" style="fill:rgb(212,0,0);"/>
                    </g>
                    <g transform="matrix(5.22067,0,0,5.22067,1121.67,1127)">
                        <circle cx="14.618" cy="9.871" r="1.697" style="fill:rgb(212,0,0);"/>
                    </g>
                    <g transform="matrix(7.65699,0,0,7.65699,1174.55,1014.48)">
                        <circle cx="14.618" cy="9.871" r="1.697" style="fill:rgb(212,0,0);"/>
                    </g>
                    <g transform="matrix(8.64809,0,0,8.64809,1158.74,916.248)">
                        <circle cx="14.618" cy="9.871" r="1.697" style="fill:rgb(212,0,0);"/>
                    </g>
                    <g transform="matrix(7.65699,0,0,7.65699,1172.98,1103.69)">
                        <circle cx="14.618" cy="9.871" r="1.697" style="fill:rgb(212,0,0);"/>
                    </g>
                    <g transform="matrix(4.15108,0,0,4.15108,1091.72,1050.09)">
                        <circle cx="14.618" cy="9.871" r="1.697" style="fill:rgb(212,0,0);"/>
                    </g>
                    <g transform="matrix(3.48045,0,0,3.48045,1101.52,1144.91)">
                        <circle cx="14.618" cy="9.871" r="1.697" style="fill:rgb(212,0,0);"/>
                    </g>
                    <g transform="matrix(6.56637,0,0,6.56637,1146.34,1024.07)">
                        <circle cx="14.618" cy="9.871" r="1.697" style="fill:rgb(212,0,0);"/>
                    </g>
                    <g transform="matrix(6.91847,0,0,6.91847,1141.44,933.32)">
                        <circle cx="14.618" cy="9.871" r="1.697" style="fill:rgb(212,0,0);"/>
                    </g>
                    <g transform="matrix(6.9609,0,0,6.9609,1140.57,1110.56)">
                        <circle cx="14.618" cy="9.871" r="1.697" style="fill:rgb(212,0,0);"/>
                    </g>
                    <g transform="matrix(6.91847,0,0,6.91847,1095.85,980.189)">
                        <circle cx="14.618" cy="9.871" r="1.697" style="fill:rgb(212,0,0);"/>
                    </g>
                    <g transform="matrix(6.56637,0,0,6.56637,1101.99,1071.87)">
                        <circle cx="14.618" cy="9.871" r="1.697" style="fill:rgb(212,0,0);"/>
                    </g>
                    <g transform="matrix(10.3777,0,0,10.3777,1135.19,946.044)">
                        <circle cx="14.618" cy="9.871" r="1.697" style="fill:rgb(212,0,0);"/>
                    </g>
                    <g transform="matrix(10.4413,0,0,10.4413,1133.85,1033.62)">
                        <circle cx="14.618" cy="9.871" r="1.697" style="fill:rgb(212,0,0);"/>
                    </g>
                    <g transform="matrix(5.22067,0,0,5.22067,1166.01,1176.6)">
                        <circle cx="14.618" cy="9.871" r="1.697" style="fill:rgb(212,0,0);"/>
                    </g>
                    <g transform="matrix(2.61034,0,0,2.61034,1156.82,1241.37)">
                        <circle cx="14.618" cy="9.871" r="1.697" style="fill:rgb(212,0,0);"/>
                    </g>
                    <g transform="matrix(2.61034,0,0,2.61034,1114.82,1201.37)">
                        <circle cx="14.618" cy="9.871" r="1.697" style="fill:rgb(212,0,0);"/>
                    </g>
                    <g transform="matrix(3.45924,0,0,3.45924,1102.41,1013.99)">
                        <circle cx="14.618" cy="9.871" r="1.697" style="fill:rgb(212,0,0);"/>
                    </g>
                    <g transform="matrix(5.18886,0,0,5.18886,1121.13,950.917)">
                        <circle cx="14.618" cy="9.871" r="1.697" style="fill:rgb(212,0,0);"/>
                    </g>
                    <g transform="matrix(2.89748,0,0,2.89748,1200.55,931.433)">
                        <circle cx="14.618" cy="9.871" r="1.697" style="fill:rgb(212,0,0);"/>
                    </g>
                    <g transform="matrix(2.61034,0,0,2.61034,1383.82,1023.27)">
                        <circle cx="14.618" cy="9.871" r="1.697" style="fill:rgb(212,0,0);"/>
                    </g>
                    <g transform="matrix(2.61034,0,0,2.61034,1425.82,1110.92)">
                        <circle cx="14.618" cy="9.871" r="1.697" style="fill:rgb(212,0,0);"/>
                    </g>
                    <g transform="matrix(2.61034,0,0,2.61034,1336.67,1242.5)">
                        <circle cx="14.618" cy="9.871" r="1.697" style="fill:rgb(212,0,0);"/>
                    </g>
                    <g transform="matrix(2.61034,0,0,2.61034,1245.67,1276.5)">
                        <circle cx="14.618" cy="9.871" r="1.697" style="fill:rgb(212,0,0);"/>
                    </g>
                    <g transform="matrix(2.61034,0,0,2.61034,1386.67,1196.94)">
                        <circle cx="14.618" cy="9.871" r="1.697" style="fill:rgb(212,0,0);"/>
                    </g>
                    <g transform="matrix(5.22067,0,0,5.22067,1207.19,1217.19)">
                        <circle cx="14.618" cy="9.871" r="1.697" style="fill:rgb(212,0,0);"/>
                    </g>
                    <g transform="matrix(3.48045,0,0,3.48045,1190.04,1234.36)">
                        <circle cx="14.618" cy="9.871" r="1.697" style="fill:rgb(212,0,0);"/>
                    </g>
                    <g transform="matrix(3.48045,0,0,3.48045,1142.7,1191.78)">
                        <circle cx="14.618" cy="9.871" r="1.697" style="fill:rgb(212,0,0);"/>
                    </g>
                    <g transform="matrix(6.9609,0,0,6.9609,1181.75,1157.43)">
                        <circle cx="14.618" cy="9.871" r="1.697" style="fill:rgb(212,0,0);"/>
                    </g>
                    <g transform="matrix(5.22067,0,0,5.22067,1255.47,995.948)">
                        <circle cx="14.618" cy="9.871" r="1.697" style="fill:rgb(212,0,0);"/>
                    </g>
                    <g transform="matrix(7.65699,0,0,7.65699,1221.02,1061.1)">
                        <circle cx="14.618" cy="9.871" r="1.697" style="fill:rgb(212,0,0);"/>
                    </g>
                    <g transform="matrix(5.22067,0,0,5.22067,1346.56,1085.15)">
                        <circle cx="14.618" cy="9.871" r="1.697" style="fill:rgb(212,0,0);"/>
                    </g>
                    <g transform="matrix(5.22067,0,0,5.22067,1302.21,1038.53)">
                        <circle cx="14.618" cy="9.871" r="1.697" style="fill:rgb(212,0,0);"/>
                    </g>
                    <g transform="matrix(5.22067,0,0,5.22067,1299.21,1127.73)">
                        <circle cx="14.618" cy="9.871" r="1.697" style="fill:rgb(212,0,0);"/>
                    </g>
                    <g transform="matrix(6.56637,0,0,6.56637,1235.8,1025.25)">
                        <circle cx="14.618" cy="9.871" r="1.697" style="fill:rgb(212,0,0);"/>
                    </g>
                    <g transform="matrix(3.48045,0,0,3.48045,1280.91,967.81)">
                        <circle cx="14.618" cy="9.871" r="1.697" style="fill:rgb(212,0,0);"/>
                    </g>
                    <g transform="matrix(6.9609,0,0,6.9609,1231.19,1110.56)">
                        <circle cx="14.618" cy="9.871" r="1.697" style="fill:rgb(212,0,0);"/>
                    </g>
                    <g transform="matrix(3.48045,0,0,3.48045,1372,1056.71)">
                        <circle cx="14.618" cy="9.871" r="1.697" style="fill:rgb(212,0,0);"/>
                    </g>
                    <g transform="matrix(3.48045,0,0,3.48045,1372,1144.91)">
                        <circle cx="14.618" cy="9.871" r="1.697" style="fill:rgb(212,0,0);"/>
                    </g>
                    <g transform="matrix(3.48045,0,0,3.48045,1326.07,1014.68)">
                        <circle cx="14.618" cy="9.871" r="1.697" style="fill:rgb(212,0,0);"/>
                    </g>
                    <g transform="matrix(6.9609,0,0,6.9609,1273.78,1067.97)">
                        <circle cx="14.618" cy="9.871" r="1.697" style="fill:rgb(212,0,0);"/>
                    </g>
                    <g transform="matrix(5.22067,0,0,5.22067,1255.23,1174.6)">
                        <circle cx="14.618" cy="9.871" r="1.697" style="fill:rgb(212,0,0);"/>
                    </g>
                    <g transform="matrix(3.48045,0,0,3.48045,1280.67,1234.36)">
                        <circle cx="14.618" cy="9.871" r="1.697" style="fill:rgb(212,0,0);"/>
                    </g>
                    <g transform="matrix(3.48045,0,0,3.48045,1323.25,1191.78)">
                        <circle cx="14.618" cy="9.871" r="1.697" style="fill:rgb(212,0,0);"/>
                    </g>
                </g>
            </g>
        </g>
    </g>
    <g transform="matrix(1,0,0,1,82.648,146.033)">
        <g transform="matrix(100,0,0,100,-70,370.7)">
            <path d="M0.08,-0.11L0.129,-0.387L0.039,-0.387L0.059,-0.498L0.151,-0.498L0.179,-0.66L0.309,-0.66L0.281,-0.498L0.433,-0.498L0.413,-0.386L0.261,-0.386L0.218,-0.145L0.247,-0.112L0.365,-0.112L0.345,-0L0.172,-0L0.08,-0.11Z" style="fill-rule:nonzero;"/>
        </g>
        <g transform="matrix(100,0,0,100,-30.1,370.7)">
            <path d="M0.026,-0.112L0.077,-0.402L0.189,-0.498L0.474,-0.498L0.566,-0.386L0.515,-0.094L0.406,-0L0.118,-0L0.026,-0.112ZM0.351,-0.11L0.392,-0.145L0.428,-0.353L0.399,-0.388L0.242,-0.388L0.201,-0.353L0.164,-0.145L0.193,-0.11L0.351,-0.11Z" style="fill-rule:nonzero;"/>
        </g>
        <g transform="matrix(100,0,0,100,29.1,370.7)">
            <path d="M0.104,-0.498L0.226,-0.498L0.211,-0.415L0.306,-0.498L0.448,-0.498L0.428,-0.386L0.317,-0.386L0.197,-0.282L0.148,-0L0.016,-0L0.104,-0.498Z" style="fill-rule:nonzero;"/>
        </g>
        <g transform="matrix(100,0,0,100,67.5,370.7)">
            <path d="M0.026,-0.11L0.077,-0.404L0.187,-0.498L0.461,-0.498L0.552,-0.386L0.537,-0.302L0.405,-0.302L0.414,-0.351L0.385,-0.386L0.241,-0.386L0.2,-0.351L0.164,-0.147L0.193,-0.112L0.337,-0.112L0.378,-0.147L0.387,-0.196L0.519,-0.196L0.5,-0.094L0.391,-0L0.115,-0L0.026,-0.11Z" style="fill-rule:nonzero;"/>
        </g>
        <g transform="matrix(100,0,0,100,123.3,370.7)">
            <path d="M0.142,-0.714L0.274,-0.714L0.222,-0.424L0.309,-0.498L0.464,-0.498L0.562,-0.379L0.495,-0L0.363,-0L0.425,-0.351L0.397,-0.386L0.315,-0.386L0.198,-0.286L0.148,-0L0.016,-0L0.142,-0.714Z" style="fill-rule:nonzero;"/>
        </g>
        <g transform="matrix(100,0,0,100,182.7,370.7)">
            <path d="M0.051,-0.314L0.403,-0.314L0.383,-0.2L0.031,-0.2L0.051,-0.314Z" style="fill-rule:nonzero;"/>
        </g>
        <g transform="matrix(100,0,0,100,225.9,370.7)">
            <path d="M0.104,-0.498L0.226,-0.498L0.213,-0.425L0.299,-0.498L0.484,-0.498L0.576,-0.386L0.524,-0.094L0.414,-0L0.22,-0L0.159,-0.06L0.111,0.212L-0.021,0.212L0.104,-0.498ZM0.36,-0.112L0.401,-0.147L0.438,-0.351L0.409,-0.386L0.296,-0.386L0.202,-0.305L0.181,-0.183L0.247,-0.112L0.36,-0.112Z" style="fill-rule:nonzero;"/>
        </g>
        <g transform="matrix(100,0,0,100,286.1,370.7)">
            <path d="M0.104,-0.498L0.226,-0.498L0.211,-0.416L0.307,-0.498L0.429,-0.498L0.485,-0.429L0.565,-0.498L0.734,-0.498L0.829,-0.382L0.761,-0L0.629,-0L0.691,-0.351L0.663,-0.386L0.58,-0.386L0.518,-0.333L0.459,-0L0.331,-0L0.393,-0.353L0.367,-0.386L0.311,-0.386L0.199,-0.29L0.148,-0L0.016,-0L0.104,-0.498Z" style="fill-rule:nonzero;"/>
        </g>
        <g transform="matrix(100,0,0,100,372.2,370.7)">
            <path d="M0.026,-0.11L0.077,-0.402L0.19,-0.498L0.47,-0.498L0.562,-0.386L0.53,-0.205L0.175,-0.205L0.164,-0.141L0.19,-0.108L0.352,-0.108L0.388,-0.139L0.392,-0.165L0.522,-0.165L0.509,-0.09L0.404,-0L0.116,-0L0.026,-0.11ZM0.414,-0.297L0.425,-0.355L0.397,-0.39L0.242,-0.39L0.202,-0.355L0.191,-0.297L0.414,-0.297Z" style="fill-rule:nonzero;"/>
        </g>
    </g>
    <defs>
        <radialGradient id="_Radial2" cx="0" cy="0" r="1" gradientUnits="userSpaceOnUse" gradientTransform="matrix(10.406,0,0,10.406,20.2519,313.254)"><stop offset="0" style="stop-color:rgb(226,226,226);stop-opacity:1"/><stop offset="0.58" style="stop-color:rgb(218,216,216);stop-opacity:1"/><stop offset="0.8" style="stop-color:rgb(200,195,195);stop-opacity:1"/><stop offset="1" style="stop-color:rgb(183,174,174);stop-opacity:1"/></radialGradient>
        <radialGradient id="_Radial3" cx="0" cy="0" r="1" gradientUnits="userSpaceOnUse" gradientTransform="matrix(10.406,0,0,10.406,20.2519,313.254)"><stop offset="0" style="stop-color:rgb(198,198,198);stop-opacity:1"/><stop offset="0.58" style="stop-color:rgb(195,193,193);stop-opacity:1"/><stop offset="0.8" style="stop-color:rgb(189,183,183);stop-opacity:1"/><stop offset="1" style="stop-color:rgb(183,174,174);stop-opacity:1"/></radialGradient>
        <radialGradient id="_Radial4" cx="0" cy="0" r="1" gradientUnits="userSpaceOnUse" gradientTransform="matrix(15.1627,0,0,15.1627,51.1602,295.426)"><stop offset="0" style="stop-color:rgb(212,0,0);stop-opacity:1"/><stop offset="0.58" style="stop-color:rgb(201,0,0);stop-opacity:1"/><stop offset="0.8" style="stop-color:rgb(178,0,0);stop-opacity:1"/><stop offset="1" style="stop-color:rgb(155,0,0);stop-opacity:1"/></radialGradient>
    </defs>
</svg>
