<?xml version="1.0" encoding="UTF-8" standalone="no"?><!DOCTYPE svg PUBLIC "-//W3C//DTD SVG 1.1//EN" "http://www.w3.org/Graphics/SVG/1.1/DTD/svg11.dtd"><svg width="100%" height="100%" viewBox="0 0 1930 566" version="1.1" xmlns="http://www.w3.org/2000/svg" xmlns:xlink="http://www.w3.org/1999/xlink" xml:space="preserve" xmlns:serif="http://www.serif.com/" style="fill-rule:evenodd;clip-rule:evenodd;stroke-linejoin:round;stroke-miterlimit:1.5;"><g><path d="M187.311,284.977l-18.822,37.464l-18.678,-37.536c9.357,9.393 28.107,9.429 37.5,0.072Z" style="fill:#818181;"/><path d="M168.793,164.08c0,0 -0.158,82.445 -0.246,128.361" style="fill:none;stroke:#818181;stroke-width:12.5px;"/><path d="M950.23,303.628l37.469,18.813l-37.532,18.687c9.391,-9.359 9.423,-28.109 0.063,-37.5Z" style="fill:#818181;"/><path d="M814.923,163.834l0,158.316c0,0 93.299,0.157 142.776,0.241" style="fill:none;stroke:#818181;stroke-width:12.5px;"/><path d="M1704.03,344.547l37.5,18.75l-37.5,18.75c9.375,-9.375 9.375,-28.125 0,-37.5Z" style="fill:#818181;"/><path d="M949.017,163.834l-0,63.671l643.237,0l0,135.792l119.272,0" style="fill:none;stroke:#818181;stroke-width:12.5px;"/><path d="M950.199,486.235l37.5,18.75l-37.5,18.75c9.375,-9.375 9.375,-28.125 -0,-37.5Z" style="fill:#818181;"/><path d="M483.087,504.985l474.612,0" style="fill:none;stroke:#818181;stroke-width:12.5px;"/></g><g id="Backprop-path" serif:id="Backprop path"><path d="M477.43,284.941l-18.75,37.5l-18.75,-37.5c9.375,9.375 28.125,9.375 37.5,-0Z" style="fill:#ff5252;"/><path d="M458.68,164.08l0,128.361" style="fill:none;stroke:#ff5252;stroke-width:16.67px;"/><path d="M950.199,354.547l37.5,18.75l-37.5,18.75c9.375,-9.375 9.375,-28.125 -0,-37.5Z" style="fill:#ff5252;"/><path d="M590.551,164.08l0,209.217l367.148,0" style="fill:none;stroke:#ff5252;stroke-width:16.67px;"/><path d="M1704.13,385.305l37.393,18.963l-37.606,18.537c9.428,-9.322 9.535,-28.071 0.213,-37.5Z" style="fill:#ff5252;"/><path d="M1458.98,402.661c-0,-0 179.815,1.023 252.552,1.437" style="fill:none;stroke:#ff5252;stroke-width:16.67px;"/><path d="M950.199,416.655l37.5,18.75l-37.5,18.75c9.375,-9.375 9.375,-28.125 -0,-37.5Z" style="fill:#ff5252;"/><path d="M483.087,435.405l474.612,0" style="fill:none;stroke:#ff5252;stroke-width:16.67px;"/></g><path d="M665.213,22.262l-0,134.121c-0,4.112 -3.339,7.451 -7.451,7.451l-292.843,-0c-4.112,-0 -7.451,-3.339 -7.451,-7.451l-0,-134.121c-0,-4.112 3.339,-7.451 7.451,-7.451l292.843,0c4.112,0 7.451,3.339 7.451,7.451Z" style="fill:#ff9100;fill-opacity:0.8;"/><clipPath id="_clip1"><path d="M665.213,22.262l-0,134.121c-0,4.112 -3.339,7.451 -7.451,7.451l-292.843,-0c-4.112,-0 -7.451,-3.339 -7.451,-7.451l-0,-134.121c-0,-4.112 3.339,-7.451 7.451,-7.451l292.843,0c4.112,0 7.451,3.339 7.451,7.451Z"/></clipPath><g clip-path="url(#_clip1)"><g transform="matrix(50,0,0,50,612.781,107.23)"></g><text x="409.9px" y="107.23px" style="font-family:'ArialMT', 'Arial', sans-serif;font-size:50px;">Positions</text></g><path d="M323.49,20.717l-0,137.211c-0,3.26 -2.646,5.906 -5.906,5.906l-295.934,-0c-3.259,-0 -5.905,-2.646 -5.905,-5.906l-0,-137.211c-0,-3.26 2.646,-5.906 5.905,-5.906l295.934,0c3.26,0 5.906,2.646 5.906,5.906Z" style="fill:#ff9100;fill-opacity:0.8;"/><clipPath id="_clip2"><path d="M323.49,20.717l-0,137.211c-0,3.26 -2.646,5.906 -5.906,5.906l-295.934,-0c-3.259,-0 -5.905,-2.646 -5.905,-5.906l-0,-137.211c-0,-3.26 2.646,-5.906 5.905,-5.906l295.934,0c3.26,0 5.906,2.646 5.906,5.906Z"/></clipPath><g clip-path="url(#_clip2)"><g transform="matrix(50,0,0,50,212.684,107.23)"></g><text x="126.551px" y="107.23px" style="font-family:'ArialMT', 'Arial', sans-serif;font-size:50px;">Cell</text></g><path d="M1690.5,384.441l-0,36.44c-0,3.259 -2.646,5.905 -5.906,5.905l-183.996,0c-3.259,0 -5.905,-2.646 -5.905,-5.905l-0,-36.44c-0,-3.26 2.646,-5.906 5.905,-5.906l183.996,-0c3.26,-0 5.906,2.646 5.906,5.906Z" style="fill:#f3f3f3;fill-opacity:0.8;"/><clipPath id="_clip3"><path d="M1690.5,384.441l-0,36.44c-0,3.259 -2.646,5.905 -5.906,5.905l-183.996,0c-3.259,0 -5.905,-2.646 -5.905,-5.905l-0,-36.44c-0,-3.26 2.646,-5.906 5.905,-5.906l183.996,-0c3.26,-0 5.906,2.646 5.906,5.906Z"/></clipPath><g clip-path="url(#_clip3)"><g transform="matrix(50,0,0,50,1689.88,420.568)"></g><text x="1495.3px" y="420.568px" style="font-family:'ArialMT', 'Arial', sans-serif;font-size:50px;">Potential</text></g><path d="M933.945,408.6l0,42.77c0,3.26 -2.646,5.906 -5.905,5.906l-418.111,-0c-3.259,-0 -5.905,-2.646 -5.905,-5.906l-0,-42.77c-0,-3.259 2.646,-5.905 5.905,-5.905l418.111,-0c3.259,-0 5.905,2.646 5.905,5.905Z" style="fill:#f3f3f3;fill-opacity:0.8;"/><clipPath id="_clip4"><path d="M933.945,408.6l0,42.77c0,3.26 -2.646,5.906 -5.905,5.906l-418.111,-0c-3.259,-0 -5.905,-2.646 -5.905,-5.906l-0,-42.77c-0,-3.259 2.646,-5.905 5.905,-5.905l418.111,-0c3.259,-0 5.905,2.646 5.905,5.905Z"/></clipPath><g clip-path="url(#_clip4)"><g transform="matrix(50,0,0,50,932.998,447.893)"></g><text x="504.971px" y="447.893px" style="font-family:'ArialMT', 'Arial', sans-serif;font-size:50px;">Neighbor distances</text></g><path d="M893.065,478.566l-0,45.678c-0,3.26 -2.647,5.906 -5.906,5.906l-336.349,-0c-3.259,-0 -5.905,-2.646 -5.905,-5.906l-0,-45.678c-0,-3.259 2.646,-5.905 5.905,-5.905l336.349,-0c3.259,-0 5.906,2.646 5.906,5.905Z" style="fill:#f3f3f3;fill-opacity:0.8;"/><clipPath id="_clip5"><path d="M893.065,478.566l-0,45.678c-0,3.26 -2.647,5.906 -5.906,5.906l-336.349,-0c-3.259,-0 -5.905,-2.646 -5.905,-5.906l-0,-45.678c-0,-3.259 2.646,-5.905 5.905,-5.905l336.349,-0c3.259,-0 5.906,2.646 5.906,5.905Z"/></clipPath><g clip-path="url(#_clip5)"><g transform="matrix(50,0,0,50,891.299,519.313)"></g><text x="546.67px" y="519.313px" style="font-family:'ArialMT', 'Arial', sans-serif;font-size:50px;">Neigbor indices</text></g><path d="M1001.97,22.508l0,134.121c0,4.112 -3.339,7.451 -7.451,7.451l-292.843,0c-4.112,0 -7.451,-3.339 -7.451,-7.451l0,-134.121c0,-4.112 3.339,-7.451 7.451,-7.451l292.843,0c4.112,0 7.451,3.339 7.451,7.451Z" style="fill:#ff9100;fill-opacity:0.8;"/><clipPath id="_clip6"><path d="M1001.97,22.508l0,134.121c0,4.112 -3.339,7.451 -7.451,7.451l-292.843,0c-4.112,0 -7.451,-3.339 -7.451,-7.451l0,-134.121c0,-4.112 3.339,-7.451 7.451,-7.451l292.843,0c4.112,0 7.451,3.339 7.451,7.451Z"/></clipPath><g clip-path="url(#_clip6)"><g transform="matrix(50,0,0,50,942.587,107.476)"></g><text x="753.598px" y="107.476px" style="font-family:'ArialMT', 'Arial', sans-serif;font-size:50px;">Charges</text></g><path d="M1918.11,316.686l0,137.211c0,3.26 -2.646,5.906 -5.905,5.906l-164.773,-0c-3.26,-0 -5.906,-2.646 -5.906,-5.906l0,-137.211c0,-3.26 2.646,-5.906 5.906,-5.906l164.773,0c3.259,0 5.905,2.646 5.905,5.906Z" style="fill:#00c832;fill-opacity:0.8;"/><clipPath id="_clip7"><path d="M1918.11,316.686l0,137.211c0,3.26 -2.646,5.906 -5.905,5.906l-164.773,-0c-3.26,-0 -5.906,-2.646 -5.906,-5.906l0,-137.211c0,-3.26 2.646,-5.906 5.906,-5.906l164.773,0c3.259,0 5.905,2.646 5.905,5.906Z"/></clipPath><g clip-path="url(#_clip7)"><g transform="matrix(50,0,0,50,1909.03,403.199)"></g><text x="1750.61px" y="403.199px" style="font-family:'ArialMT', 'Arial', sans-serif;font-size:50px;">Energy</text></g><path d="M483.087,331.108l-0,213.923c-0,3.26 -2.647,5.906 -5.906,5.906l-459.464,0c-3.26,0 -5.906,-2.646 -5.906,-5.906l0,-213.923c0,-3.259 2.646,-5.906 5.906,-5.906l459.464,0c3.259,0 5.906,2.647 5.906,5.906Z" style="fill:#00b0ff;fill-opacity:0.8;"/><clipPath id="_clip8"><path d="M483.087,331.108l-0,213.923c-0,3.26 -2.647,5.906 -5.906,5.906l-459.464,0c-3.26,0 -5.906,-2.646 -5.906,-5.906l0,-213.923c0,-3.259 2.646,-5.906 5.906,-5.906l459.464,0c3.259,0 5.906,2.647 5.906,5.906Z"/></clipPath><g clip-path="url(#_clip8)"><g transform="matrix(1,0,0,1,-529.49,-719.439)"><text x="637.986px" y="1142.08px" style="font-family:'ArialMT', 'Arial', sans-serif;font-size:50px;">Neighbor list</text><g transform="matrix(50,0,0,50,864.499,1208.75)"></g><text x="689.377px" y="1208.75px" style="font-family:'ArialMT', 'Arial', sans-serif;font-size:50px;">function</text></g></g><path d="M1458.98,297.082l-0,247.521c-0,3.26 -2.647,5.906 -5.906,5.906l-459.465,-0c-3.259,-0 -5.905,-2.646 -5.905,-5.906l-0,-247.521c-0,-3.259 2.646,-5.905 5.905,-5.905l459.465,-0c3.259,-0 5.906,2.646 5.906,5.905Z" style="fill:#00c832;fill-opacity:0.8;"/><clipPath id="_clip9"><path d="M1458.98,297.082l-0,247.521c-0,3.26 -2.647,5.906 -5.906,5.906l-459.465,-0c-3.259,-0 -5.905,-2.646 -5.905,-5.906l-0,-247.521c-0,-3.259 2.646,-5.905 5.905,-5.905l459.465,-0c3.259,-0 5.906,2.646 5.906,5.905Z"/></clipPath><g clip-path="url(#_clip9)"><g transform="matrix(1,0,0,1,446.398,-753.465)"><text x="679.648px" y="1158.88px" style="font-family:'ArialMT', 'Arial', sans-serif;font-size:50px;">Potential</text><g transform="matrix(50,0,0,50,883.933,1225.55)"></g><text x="669.944px" y="1225.55px" style="font-family:'ArialMT', 'Arial', sans-serif;font-size:50px;">calculator</text></g></g></svg>