<?xml version="1.0" encoding="UTF-8" standalone="no"?><!DOCTYPE svg PUBLIC "-//W3C//DTD SVG 1.1//EN" "http://www.w3.org/Graphics/SVG/1.1/DTD/svg11.dtd"><svg width="100%" height="100%" viewBox="0 0 1907 543" version="1.1" xmlns="http://www.w3.org/2000/svg" xmlns:xlink="http://www.w3.org/1999/xlink" xml:space="preserve" xmlns:serif="http://www.serif.com/" style="fill-rule:evenodd;clip-rule:evenodd;stroke-linecap:round;stroke-linejoin:round;stroke-miterlimit:1.5;"><path d="M156.982,151.269l0,167.369" style="fill:none;stroke:#000;stroke-width:4.17px;"/><g id="Backprop-path" serif:id="Backprop path"><path d="M446.869,151.023l0,167.368" style="fill:none;stroke:#cd0000;stroke-width:8.33px;"/><path d="M446.869,214.694l230.644,0l-0,135.792l229.641,0" style="fill:none;stroke:#cd0000;stroke-width:8.33px;"/><path d="M1377.16,391.233l221.39,-0" style="fill:none;stroke:#cd0000;stroke-width:8.33px;"/><path d="M471.276,402.594l434.612,0" style="fill:none;stroke:#cd0000;stroke-width:8.33px;"/></g><path d="M803.112,151.023l0,158.316l102.776,0" style="fill:none;stroke:#000;stroke-width:4.17px;"/><path d="M937.206,151.023l-0,63.671l483.237,0l0,135.792l178.111,0" style="fill:none;stroke:#000;stroke-width:4.17px;"/><path d="M471.276,458.174l434.612,0" style="fill:none;stroke:#000;stroke-width:4.17px;"/><rect x="345.657" y="2" width="307.745" height="149.023" style="fill:#ebebeb;"/><g transform="matrix(50,0,0,50,600.97,94.4192)"></g><text x="398.089px" y="94.419px" style="font-family:'ArialMT', 'Arial', sans-serif;font-size:50px;">Positions</text><rect x="345.657" y="2" width="307.745" height="149.023" style="fill:none;stroke:#000;stroke-width:4.17px;"/><rect x="3.934" y="2" width="307.745" height="149.023" style="fill:#ebebeb;"/><g transform="matrix(50,0,0,50,200.873,94.4192)"></g><text x="114.74px" y="94.419px" style="font-family:'ArialMT', 'Arial', sans-serif;font-size:50px;">Cell</text><rect x="3.934" y="2" width="307.745" height="149.023" style="fill:none;stroke:#000;stroke-width:4.17px;"/><rect x="1419.75" y="370.841" width="136.224" height="40.784" style="fill:#f3f3f3;"/><g transform="matrix(33.3333,0,0,33.3333,1552.72,403.171)"></g><text x="1423px" y="403.171px" style="font-family:'ArialMT', 'Arial', sans-serif;font-size:33.333px;">Potential</text><rect x="1419.75" y="370.841" width="136.224" height="40.784" style="fill:none;stroke:#000;stroke-width:4.17px;"/><rect x="540.882" y="382.202" width="295.4" height="40.784" style="fill:#f3f3f3;"/><g transform="matrix(33.3333,0,0,33.3333,831.258,414.533)"></g><text x="545.906px" y="414.533px" style="font-family:'ArialMT', 'Arial', sans-serif;font-size:33.333px;">Neighbor distances</text><rect x="540.882" y="382.202" width="295.4" height="40.784" style="fill:none;stroke:#000;stroke-width:4.17px;"/><rect x="569.435" y="437.782" width="238.293" height="40.784" style="fill:#f3f3f3;"/><g transform="matrix(33.3333,0,0,33.3333,803.458,470.1)"></g><text x="573.705px" y="470.1px" style="font-family:'ArialMT', 'Arial', sans-serif;font-size:33.333px;">Neigbor indices</text><rect x="569.435" y="437.782" width="238.293" height="40.784" style="fill:none;stroke:#000;stroke-width:4.17px;"/><rect x="682.409" y="2.246" width="307.745" height="149.023" style="fill:#ebebeb;"/><g transform="matrix(50,0,0,50,930.776,94.6654)"></g><text x="741.787px" y="94.665px" style="font-family:'ArialMT', 'Arial', sans-serif;font-size:50px;">Charges</text><rect x="682.409" y="2.246" width="307.745" height="149.023" style="fill:none;stroke:#000;stroke-width:4.17px;"/><rect x="1598.55" y="297.969" width="307.745" height="149.023" style="fill:#ebebeb;"/><g transform="matrix(50,0,0,50,1831.64,390.388)"></g><text x="1673.22px" y="390.388px" style="font-family:'ArialMT', 'Arial', sans-serif;font-size:50px;">Energy</text><rect x="1598.55" y="297.969" width="307.745" height="149.023" style="fill:none;stroke:#000;stroke-width:4.17px;"/><rect x="0" y="318.391" width="471.276" height="225.735" style="fill:#3db632;"/><g transform="matrix(1,0,0,1,-541.301,-726.25)"><text x="637.986px" y="1142.08px" style="font-family:'ArialMT', 'Arial', sans-serif;font-size:50px;">Neighbor list</text><g transform="matrix(50,0,0,50,864.499,1208.75)"></g><text x="689.377px" y="1208.75px" style="font-family:'ArialMT', 'Arial', sans-serif;font-size:50px;">function</text></g><rect x="0" y="318.391" width="471.276" height="225.735" style="fill:none;stroke:#000;stroke-width:4.17px;"/><rect x="905.888" y="278.366" width="471.276" height="259.332" style="fill:#3db632;"/><g transform="matrix(1,0,0,1,364.587,-766.276)"><text x="679.648px" y="1158.8px" style="font-family:'ArialMT', 'Arial', sans-serif;font-size:50px;">Potential</text><g transform="matrix(50,0,0,50,883.933,1225.47)"></g><text x="669.944px" y="1225.46px" style="font-family:'ArialMT', 'Arial', sans-serif;font-size:50px;">calculator</text></g><rect x="905.888" y="278.366" width="471.276" height="259.332" style="fill:none;stroke:#000;stroke-width:4.17px;"/></svg>