<?xml version="1.0" encoding="UTF-8" standalone="no"?><!DOCTYPE svg PUBLIC "-//W3C//DTD SVG 1.1//EN" "http://www.w3.org/Graphics/SVG/1.1/DTD/svg11.dtd"><svg width="100%" height="100%" viewBox="0 0 1067 1067" version="1.1" xmlns="http://www.w3.org/2000/svg" xmlns:xlink="http://www.w3.org/1999/xlink" xml:space="preserve" xmlns:serif="http://www.serif.com/" style="fill-rule:evenodd;clip-rule:evenodd;"><g id="Layer-1" serif:id="Layer 1"><rect id="rect45" x="0" y="1.286" width="1065.38" height="1065.38" style="fill:#666;"/><path id="path36" d="M0,800.321l0,266.345l1065.38,0l0,-799.035l-1065.38,532.69Z" style="fill:#333;fill-rule:nonzero;"/><g id="g33"><path id="path2477" d="M665.863,1.286l-0,1065.38" style="fill:none;fill-rule:nonzero;stroke:#b3b3b3;stroke-width:8.32px;"/><path id="path2481" d="M799.035,1.286l0,1065.38" style="fill:none;fill-rule:nonzero;stroke:#b3b3b3;stroke-width:8.32px;"/><path id="path2485" d="M932.208,1.286l-0,1065.38" style="fill:none;fill-rule:nonzero;stroke:#b3b3b3;stroke-width:8.32px;"/><path id="path2489" d="M532.69,134.459l532.691,-0" style="fill:none;fill-rule:nonzero;stroke:#b3b3b3;stroke-width:8.32px;"/><path id="path2493" d="M532.69,267.631l532.691,0" style="fill:none;fill-rule:nonzero;stroke:#b3b3b3;stroke-width:8.32px;"/><path id="path2497" d="M532.69,400.804l532.691,-0" style="fill:none;fill-rule:nonzero;stroke:#b3b3b3;stroke-width:8.32px;"/><path id="path2499" d="M532.69,533.976l532.691,0" style="fill:none;fill-rule:nonzero;stroke:#b3b3b3;stroke-width:8.32px;"/><path id="path2509" d="M532.69,667.149l532.691,-0" style="fill:none;fill-rule:nonzero;stroke:#b3b3b3;stroke-width:8.32px;"/><path id="path2511" d="M532.69,800.321l532.691,0" style="fill:none;fill-rule:nonzero;stroke:#b3b3b3;stroke-width:8.32px;"/><path id="path2521" d="M532.69,933.494l532.691,0" style="fill:none;fill-rule:nonzero;stroke:#b3b3b3;stroke-width:8.32px;"/><path id="path1" d="M133.173,1.286l-0,1065.38" style="fill:none;fill-rule:nonzero;stroke:#b3b3b3;stroke-width:8.32px;"/><path id="path2" d="M266.345,1.286l0,1065.38" style="fill:none;fill-rule:nonzero;stroke:#b3b3b3;stroke-width:8.32px;"/><path id="path3" d="M399.518,1.286l-0,1065.38" style="fill:none;fill-rule:nonzero;stroke:#b3b3b3;stroke-width:8.32px;"/><path id="path4" d="M0,134.459l532.69,-0" style="fill:none;fill-rule:nonzero;stroke:#b3b3b3;stroke-width:8.32px;"/><path id="path5" d="M0,267.631l532.69,0" style="fill:none;fill-rule:nonzero;stroke:#b3b3b3;stroke-width:8.32px;"/><path id="path6" d="M0,400.804l532.69,-0" style="fill:none;fill-rule:nonzero;stroke:#b3b3b3;stroke-width:8.32px;"/><path id="path7" d="M0,533.976l532.69,0" style="fill:none;fill-rule:nonzero;stroke:#b3b3b3;stroke-width:8.32px;"/><path id="path8" d="M0,667.149l532.69,-0" style="fill:none;fill-rule:nonzero;stroke:#b3b3b3;stroke-width:8.32px;"/><path id="path9" d="M0,800.321l532.69,0" style="fill:none;fill-rule:nonzero;stroke:#b3b3b3;stroke-width:8.32px;"/><path id="path10" d="M0,933.494l532.69,0" style="fill:none;fill-rule:nonzero;stroke:#b3b3b3;stroke-width:8.32px;"/><path id="path31" d="M532.69,1.286l0,1065.38" style="fill:none;fill-rule:nonzero;stroke:#b3b3b3;stroke-width:8.32px;"/></g><g id="g40"><clipPath id="_clip1"><path d="M0,800.321l0,266.345l1065.38,0l0,-799.035l-1065.38,532.69Z"/></clipPath><g clip-path="url(#_clip1)"><g id="g24"><path id="circle22" d="M427.803,864.051c-11.069,-6.627 -14.675,-20.994 -8.048,-32.063c6.627,-11.069 20.994,-14.676 32.063,-8.049c11.069,6.627 14.676,20.994 8.049,32.063c-6.627,11.07 -20.994,14.676 -32.064,8.049Z" style="fill:#fff;stroke:#fff;stroke-width:17.87px;stroke-linecap:round;stroke-linejoin:round;stroke-miterlimit:1.5;"/><path id="ellipse23" d="M391.706,932.856c-47.683,-28.547 -63.111,-90.615 -34.432,-138.519c28.68,-47.904 90.676,-63.62 138.359,-35.073c47.682,28.547 63.11,90.615 34.431,138.519c-28.679,47.904 -90.676,63.62 -138.358,35.073Z" style="fill:none;stroke:#fff;stroke-width:35.73px;stroke-linecap:round;stroke-linejoin:round;stroke-miterlimit:1.5;"/><path id="ellipse24" d="M335.908,1019.38c-96.084,-57.525 -127.173,-182.598 -69.382,-279.129c57.792,-96.531 182.72,-128.2 278.805,-70.676c96.084,57.525 127.173,182.598 69.382,279.129c-57.792,96.531 -182.72,128.2 -278.805,70.676Z" style="fill:none;stroke:#fff;stroke-width:17.87px;stroke-linecap:round;stroke-linejoin:round;stroke-miterlimit:1.5;"/></g><g id="g22"><path id="circle20" d="M595.026,531.178c-17.784,-10.646 -23.578,-33.728 -12.931,-51.512c10.646,-17.784 33.728,-23.578 51.512,-12.931c17.784,10.647 23.578,33.729 12.931,51.512c-10.647,17.784 -33.729,23.578 -51.512,12.931Z" style="fill:#c20000;stroke:#c20000;stroke-width:21.53px;stroke-linecap:round;stroke-linejoin:round;stroke-miterlimit:1.5;"/><path id="ellipse20" d="M556.358,606.021c-57.455,-34.398 -76.045,-109.186 -41.488,-166.908c34.557,-57.722 109.259,-76.658 166.714,-42.261c57.454,34.398 76.044,109.187 41.487,166.908c-34.557,57.722 -109.259,76.658 -166.713,42.261Z" style="fill:none;stroke:#c20000;stroke-width:43.06px;stroke-linecap:round;stroke-linejoin:round;stroke-miterlimit:1.5;"/><path id="ellipse21" d="M489.12,710.287c-115.777,-69.313 -153.237,-220.02 -83.601,-336.335c69.635,-116.314 220.167,-154.473 335.943,-85.159c115.777,69.313 153.237,220.02 83.602,336.335c-69.636,116.314 -220.167,154.473 -335.944,85.159Z" style="fill:none;stroke:#c20000;stroke-width:32.29px;stroke-linecap:round;stroke-linejoin:round;stroke-miterlimit:1.5;"/><path id="ellipse22" d="M428.953,813.6c-173.378,-103.798 -229.477,-329.484 -125.196,-503.667c104.281,-174.183 329.705,-231.326 503.083,-127.527c173.378,103.799 229.476,329.485 125.196,503.668c-104.281,174.182 -329.705,231.325 -503.083,127.526Z" style="fill:none;stroke:#c20000;stroke-width:21.53px;stroke-linecap:round;stroke-linejoin:round;stroke-miterlimit:1.5;"/></g></g></g><g id="g2"><path id="path33" d="M1065.38,266.345l0,-266.345l-1065.38,0l0,799.035l1065.38,-532.69Z" style="fill:#f9f9f9;fill-rule:nonzero;"/><g id="g10"><clipPath id="_clip2"><path d="M1065.38,266.345l0,-266.345l-1065.38,0l0,799.035l1065.38,-532.69Z"/></clipPath><g clip-path="url(#_clip2)"><path id="path11" d="M406.272,171.807l210.808,326.296l-177.269,345.892" style="fill:none;fill-rule:nonzero;stroke:#333;stroke-width:105.01px;"/><path id="path28614" d="M406.272,171.807l210.808,326.296l-177.269,345.892" style="fill:none;fill-rule:nonzero;stroke:#b3b3b3;stroke-width:70.01px;"/><path id="path28264" d="M782,489.919c4.58,91.019 -65.596,168.634 -156.615,173.215c-91.019,4.581 -168.634,-65.596 -173.215,-156.615c-4.581,-91.019 65.596,-168.634 156.615,-173.215c91.019,-4.58 168.634,65.596 173.215,156.615Z" style="fill:#d40000;stroke:#800000;stroke-width:35px;stroke-linecap:round;"/><path id="path28264-3" d="M552.991,838.299c3.143,62.466 -45.018,115.732 -107.484,118.876c-62.466,3.144 -115.732,-45.018 -118.876,-107.484c-3.144,-62.465 45.018,-115.732 107.484,-118.876c62.465,-3.143 115.732,45.018 118.876,107.484Z" style="fill:#fff;stroke:#333;stroke-width:35px;stroke-linecap:round;"/><path id="circle28579" d="M519.451,166.111c3.144,62.466 -45.018,115.732 -107.484,118.876c-62.465,3.144 -115.732,-45.018 -118.876,-107.484c-3.144,-62.465 45.018,-115.732 107.484,-118.876c62.466,-3.143 115.732,45.018 118.876,107.484Z" style="fill:#fff;stroke:#1c1c1c;stroke-width:35px;stroke-linecap:round;"/></g></g><path id="path45" d="M336.485,306.107l-136.726,28.11l59.547,-126.247l-10.479,87.658l87.658,10.479Z" style="fill-rule:nonzero;"/><path d="M406.271,171.807c0,0 -96.369,75.789 -157.444,123.821" style="fill:none;fill-rule:nonzero;stroke:#000;stroke-width:41.62px;stroke-linecap:round;"/></g></g></svg>